STARTFONT 2.1
COMMENT
COMMENT Converted from OpenType font "Q:\font stuff\winfont\WaveeWeekend-Normal.otf" by "otf2bdf 3.0".
COMMENT
FONT -FreeType-WaveeWeekend Normal-Medium-R-Normal--28-280-72-72-P-128-ISO10646-1
SIZE 28 72 72
FONTBOUNDINGBOX 40 46 -3 -14
STARTPROPERTIES 19
FOUNDRY "FreeType"
FAMILY_NAME "WaveeWeekend Normal"
WEIGHT_NAME "Medium"
SLANT "R"
SETWIDTH_NAME "Normal"
ADD_STYLE_NAME ""
PIXEL_SIZE 26
POINT_SIZE 280
RESOLUTION_X 72
RESOLUTION_Y 72
SPACING "P"
AVERAGE_WIDTH 128
CHARSET_REGISTRY "ISO10646"
CHARSET_ENCODING "1"
FONT_ASCENT 29
FONT_DESCENT 12
COPYRIGHT "-FreeType-WaveeWeekend Normal-Medium-R-Normal--28-280-72-72-P-128-ISO10646-1"
_OTF_FONTFILE "Q:\font stuff\winfont\WaveeWeekend-Normal.otf"
_OTF_PSNAME "WaveeWeekend-Normal"
ENDPROPERTIES
CHARS 244
STARTCHAR 0020
ENCODING 32
SWIDTH 250 0
DWIDTH 7 0
BBX 0 0 0 0
BITMAP
ENDCHAR
STARTCHAR 0021
ENCODING 33
SWIDTH 285 0
DWIDTH 8 0
BBX 5 21 2 1
BITMAP
78
F8
78
78
78
78
78
78
78
78
78
38
38
38
38
18
00
30
38
38
30
ENDCHAR
STARTCHAR 0022
ENCODING 34
SWIDTH 357 0
DWIDTH 10 0
BBX 7 8 2 11
BITMAP
EE
EE
EE
EE
EE
EE
EE
E6
ENDCHAR
STARTCHAR 0023
ENCODING 35
SWIDTH 821 0
DWIDTH 23 0
BBX 17 21 3 0
BITMAP
0E3000
0E3800
0E3800
0E3800
0E3800
0E3800
EFFF80
FFFF80
FFFF80
0E3800
0E3800
0E3800
FEFF80
FFFF80
FFFF80
0FF800
0E3800
0E3800
0E3800
0E3800
0E3800
ENDCHAR
STARTCHAR 0024
ENCODING 36
SWIDTH 607 0
DWIDTH 17 0
BBX 14 26 1 -3
BITMAP
0700
0700
0FC0
3FF0
7FF8
FF78
F718
F700
FF00
7F00
3F80
1FE0
0FF0
03F8
0378
033C
033C
033C
033C
7BFC
7FF8
3FF0
0FC0
0700
0700
0300
ENDCHAR
STARTCHAR 0025
ENCODING 37
SWIDTH 1000 0
DWIDTH 28 0
BBX 26 21 1 0
BITMAP
38008000
3807C000
7FFF8000
F7FD8000
E7818000
E7830000
E7830000
E7860000
E7863E00
E78C7F00
778C7F80
7F9C6380
3F98E380
0E18E3C0
0030E1C0
0030E1C0
0060E1C0
00E073C0
01C07F80
03C03F80
03801F00
ENDCHAR
STARTCHAR 0026
ENCODING 38
SWIDTH 750 0
DWIDTH 21 0
BBX 20 22 1 0
BITMAP
07C000
1FF000
3FF000
3C7800
383800
381000
380000
3C0000
1C0000
1FE000
1FE000
3E0000
780000
783FF0
F83FF0
F80F80
780780
7C0F00
7F3F00
3FFE00
1FFC00
07F000
ENDCHAR
STARTCHAR 0027
ENCODING 39
SWIDTH 178 0
DWIDTH 5 0
BBX 3 8 2 13
BITMAP
E0
E0
E0
E0
E0
E0
E0
60
ENDCHAR
STARTCHAR 0028
ENCODING 40
SWIDTH 428 0
DWIDTH 12 0
BBX 11 29 1 -7
BITMAP
0700
0F00
0F00
1F00
1E00
3C00
3C00
7800
7800
7000
7000
7000
F000
F000
F000
F000
7000
7000
7800
7800
3C00
3C00
1E00
1F00
0F80
07C0
03E0
01E0
0080
ENDCHAR
STARTCHAR 0029
ENCODING 41
SWIDTH 428 0
DWIDTH 12 0
BBX 9 28 1 -6
BITMAP
E000
F000
7800
3C00
1C00
1E00
0E00
0F00
0700
0700
0780
0380
0380
0380
0380
0380
0380
0780
0780
0700
0F00
0F00
1E00
1E00
3C00
7C00
7800
6000
ENDCHAR
STARTCHAR 002A
ENCODING 42
SWIDTH 392 0
DWIDTH 11 0
BBX 10 9 1 13
BITMAP
0E00
0E00
0C00
FFC0
7FC0
1E00
1F00
3B80
7380
ENDCHAR
STARTCHAR 002B
ENCODING 43
SWIDTH 821 0
DWIDTH 23 0
BBX 16 17 4 1
BITMAP
0180
0180
0180
0180
0180
0180
0180
FFFF
FFFF
7FFF
0180
0180
0180
0180
0180
0180
0180
ENDCHAR
STARTCHAR 002C
ENCODING 44
SWIDTH 250 0
DWIDTH 7 0
BBX 4 8 1 -5
BITMAP
70
F0
F0
70
70
E0
E0
C0
ENDCHAR
STARTCHAR 002D
ENCODING 45
SWIDTH 285 0
DWIDTH 8 0
BBX 7 2 0 7
BITMAP
FE
FE
ENDCHAR
STARTCHAR 002E
ENCODING 46
SWIDTH 250 0
DWIDTH 7 0
BBX 5 4 1 0
BITMAP
20
F8
78
70
ENDCHAR
STARTCHAR 002F
ENCODING 47
SWIDTH 357 0
DWIDTH 10 0
BBX 8 26 1 -3
BITMAP
02
07
07
07
07
0F
0E
0E
0E
0E
0E
1C
1C
1C
1C
38
38
38
38
38
78
70
70
F0
F0
20
ENDCHAR
STARTCHAR 0030
ENCODING 48
SWIDTH 535 0
DWIDTH 15 0
BBX 13 21 1 1
BITMAP
1F80
3FC0
3FE0
7DE0
78F0
7870
7878
7078
F078
F078
F078
F078
F078
7078
7878
7878
3C78
3EF8
1FF0
0FF0
03E0
ENDCHAR
STARTCHAR 0031
ENCODING 49
SWIDTH 535 0
DWIDTH 15 0
BBX 8 22 3 0
BITMAP
04
1E
3E
7E
FE
FE
EE
0E
0E
0E
0E
0E
0E
0E
0F
0F
0F
0F
0F
0F
0F
07
ENDCHAR
STARTCHAR 0032
ENCODING 50
SWIDTH 535 0
DWIDTH 15 0
BBX 14 21 1 0
BITMAP
7F80
FFC0
E3E0
E0E0
E0F0
0070
0070
0070
00F0
01E0
01E0
03E0
07C0
0F80
1F80
1F00
3E00
7C18
FFFC
FFFC
FFFC
ENDCHAR
STARTCHAR 0033
ENCODING 51
SWIDTH 535 0
DWIDTH 15 0
BBX 13 22 1 -1
BITMAP
0C00
7F80
FFC0
FFE0
E1F0
00F0
00F0
00F0
01E0
0FC0
1FC0
0FF0
00F0
0078
0078
0078
0078
0078
F1F8
FFF0
7FE0
1F80
ENDCHAR
STARTCHAR 0034
ENCODING 52
SWIDTH 535 0
DWIDTH 15 0
BBX 13 24 0 -2
BITMAP
0400
0E00
0E00
1E00
1E00
1E00
1C00
3DC0
3DC0
39C0
39C0
79C0
79C0
71C0
F1C0
FFF8
7FF8
00F8
01C0
01C0
01C0
01C0
01C0
00C0
ENDCHAR
STARTCHAR 0035
ENCODING 53
SWIDTH 535 0
DWIDTH 15 0
BBX 13 20 1 1
BITMAP
FFC0
FFC0
F000
F000
F000
F000
FE00
7FC0
7FE0
07E0
00F0
00F0
0078
0078
0078
4078
F1F8
FFF0
7FE0
1FC0
ENDCHAR
STARTCHAR 0036
ENCODING 54
SWIDTH 535 0
DWIDTH 15 0
BBX 14 20 1 0
BITMAP
0E00
1E00
3F00
3E00
7C00
7800
7000
F7C0
FFE0
FFF0
FFF8
F87C
F03C
703C
783C
783C
3C78
3FF8
1FF0
07E0
ENDCHAR
STARTCHAR 0037
ENCODING 55
SWIDTH 535 0
DWIDTH 15 0
BBX 15 21 -1 -1
BITMAP
FFE0
FFF0
FFF8
6070
0070
0070
0070
00F0
07FE
0FFE
07FC
01E0
01E0
01C0
01C0
01C0
03C0
03C0
0380
0380
0380
ENDCHAR
STARTCHAR 0038
ENCODING 56
SWIDTH 535 0
DWIDTH 15 0
BBX 12 22 2 0
BITMAP
3E00
7F80
FFC0
E1C0
E000
E180
7380
7F80
3F00
1F00
3F00
7F80
7FC0
F1E0
E0E0
E060
E070
7070
78E0
3FE0
1FE0
0FC0
ENDCHAR
STARTCHAR 0039
ENCODING 57
SWIDTH 535 0
DWIDTH 15 0
BBX 14 23 0 -3
BITMAP
0700
3FC0
79E0
7070
E078
E038
E03C
E03C
703C
787C
3CFC
0FFC
03FC
0038
0038
0038
0078
0078
00F0
01F0
01E0
01E0
01C0
ENDCHAR
STARTCHAR 003A
ENCODING 58
SWIDTH 285 0
DWIDTH 8 0
BBX 5 13 1 0
BITMAP
70
F8
F8
20
00
00
00
00
30
F8
78
78
30
ENDCHAR
STARTCHAR 003B
ENCODING 59
SWIDTH 285 0
DWIDTH 8 0
BBX 5 16 0 -3
BITMAP
78
F8
78
78
00
00
00
00
38
78
78
38
38
70
70
60
ENDCHAR
STARTCHAR 003C
ENCODING 60
SWIDTH 821 0
DWIDTH 23 0
BBX 17 16 2 1
BITMAP
000380
000F80
003F80
00FF00
07F800
1FE000
7F8000
FE0000
F80000
FF0000
7FC000
1FF000
03FC00
00FF00
003F00
000F00
ENDCHAR
STARTCHAR 003D
ENCODING 61
SWIDTH 928 0
DWIDTH 26 0
BBX 19 8 2 4
BITMAP
FFFFC0
FFFFC0
FFFFC0
000000
000000
000000
7FFFE0
7FFFE0
ENDCHAR
STARTCHAR 003E
ENCODING 62
SWIDTH 892 0
DWIDTH 25 0
BBX 17 15 4 1
BITMAP
F00000
FE0000
7F8000
1FF000
03FC00
007F00
001F80
001F80
003F00
00FC00
07F000
1FC000
7F0000
7E0000
780000
ENDCHAR
STARTCHAR 003F
ENCODING 63
SWIDTH 428 0
DWIDTH 12 0
BBX 9 21 2 1
BITMAP
3C00
7F00
FF00
F780
E380
E380
E380
0380
0700
0700
0F00
0E00
1E00
1E00
1E00
1E00
0800
0C00
3E00
3E00
0C00
ENDCHAR
STARTCHAR 0040
ENCODING 64
SWIDTH 1035 0
DWIDTH 29 0
BBX 21 20 5 0
BITMAP
00FC00
07FF80
0F07C0
3C00E0
380070
70F270
71FF38
E3CE38
E78638
E70E38
E70E38
E70C70
E39CF0
73FFE0
71F7C0
780000
3C0040
1F01E0
0FFFC0
01FF00
ENDCHAR
STARTCHAR 0041
ENCODING 65
SWIDTH 642 0
DWIDTH 18 0
BBX 19 22 1 0
BITMAP
001000
00FC00
03F800
07F000
0FC700
1F0700
3E0700
3C0700
7C0F00
780F00
780F00
F00F00
F00F00
F00F00
F01F00
F01F00
F03F00
783700
7CF700
3FE780
1FC3E0
0F81E0
ENDCHAR
STARTCHAR 0042
ENCODING 66
SWIDTH 678 0
DWIDTH 19 0
BBX 17 23 2 -1
BITMAP
0C7800
0FFE00
0FFF00
078F00
070700
0F0700
1F0700
3F0700
3F0F00
7FFE00
77FC00
67DC00
E78E00
E78F00
E78F80
E78780
E78780
E70780
E70F80
6FFF00
7FFE00
3F0000
1C0000
ENDCHAR
STARTCHAR 0043
ENCODING 67
SWIDTH 607 0
DWIDTH 17 0
BBX 16 29 -1 -6
BITMAP
00F8
03FC
07FE
0F8E
1F0E
1E0E
3C0E
3C1E
7C7C
7878
7870
7800
7000
F000
F000
F000
F000
F000
F000
F007
F007
780F
780F
7C0E
3E1E
3FFC
1FF8
0FF0
03E0
ENDCHAR
STARTCHAR 0044
ENCODING 68
SWIDTH 821 0
DWIDTH 23 0
BBX 20 24 2 -2
BITMAP
003000
007800
007000
07FC00
1FFF00
3FFF80
7CF7C0
70E3C0
F1E1E0
E1E1E0
E1E0E0
E1E0F0
E1E0F0
E1E0F0
E1E0F0
E1E0F0
E1E0F0
E1E0F0
61E0F0
01E1E0
03E3E0
0FFFC0
1FFF00
1F8000
ENDCHAR
STARTCHAR 0045
ENCODING 69
SWIDTH 535 0
DWIDTH 15 0
BBX 14 29 1 -6
BITMAP
07C0
0FF0
1FF8
3E38
3C3C
781C
7800
7800
7800
7800
79C0
3FE0
3FE0
1FC0
3C00
7800
7800
F000
F008
F01C
F01C
F03C
F03C
F878
FCF8
7FF0
7FE0
3FC0
0200
ENDCHAR
STARTCHAR 0046
ENCODING 70
SWIDTH 678 0
DWIDTH 19 0
BBX 20 26 -1 -4
BITMAP
FFF000
FFFC00
E0FC00
E01E00
701E00
001E00
001E00
001E00
001E00
001E00
00FE00
07FFE0
07FFF0
039E60
001E00
001C00
001C00
003C00
003C00
203C00
703C00
787C00
3FF800
1FF800
0FF000
008000
ENDCHAR
STARTCHAR 0047
ENCODING 71
SWIDTH 642 0
DWIDTH 18 0
BBX 20 27 -3 -4
BITMAP
003C00
007E00
40FF00
F0FF00
FFFE00
7FFC00
3F8000
0380F0
0380F0
0380F0
0380F0
03C1F0
03C3F0
03FFF0
01FEF0
00FCF0
0010F0
0000F0
0000F0
0000F0
0700F0
0780E0
0780E0
03E1E0
03FFC0
01FF80
007F00
ENDCHAR
STARTCHAR 0048
ENCODING 72
SWIDTH 785 0
DWIDTH 22 0
BBX 24 23 -2 -1
BITMAP
3C0020
7FC070
FFE0F0
E1F0F0
E070F0
6070F0
0070F0
0070F0
0070F0
0070F0
007FF0
01FFF0
03FFF0
0FF0F0
0F78F0
1E78F0
1C78F0
1C7870
1C7870
1E7078
1FF03C
0FE01F
07C00F
ENDCHAR
STARTCHAR 0049
ENCODING 73
SWIDTH 535 0
DWIDTH 15 0
BBX 11 25 2 -3
BITMAP
0E00
3F00
3F80
7380
63C0
63C0
E1C0
E1E0
E1E0
E1E0
71E0
71E0
71E0
38E0
3DE0
1FE0
0FE0
03E0
00E0
E0E0
E0E0
F1C0
7FC0
3F80
1E00
ENDCHAR
STARTCHAR 004A
ENCODING 74
SWIDTH 535 0
DWIDTH 15 0
BBX 16 29 0 -8
BITMAP
0700
1F80
3FC0
3FE0
79E0
78E0
70F0
70F0
70F0
7870
7870
3870
3870
1C70
1E70
0FF0
03F0
00F0
0070
1FF0
3FFF
7FFF
78FC
7070
F070
70E0
78E0
3FC0
1F80
ENDCHAR
STARTCHAR 004B
ENCODING 75
SWIDTH 785 0
DWIDTH 22 0
BBX 22 22 0 0
BITMAP
1F0038
7FE07C
F1F07C
F0F0F8
7870F0
3870E0
0071C0
0071C0
007B80
007B80
007F80
007FE0
007FE0
007FF0
007CF0
0070F0
0070F0
C0F0F0
E0F070
F1E078
7FC07C
1F803C
ENDCHAR
STARTCHAR 004C
ENCODING 76
SWIDTH 642 0
DWIDTH 18 0
BBX 19 23 0 -1
BITMAP
001F80
001FC0
3039C0
3838C0
3C39C0
3FFBC0
0FFF80
07FF00
007C00
003800
003800
003800
003800
003800
3E3800
FFF800
FFF800
F0F800
F03E00
F87F00
FFFFE0
7FE7E0
3FC1E0
ENDCHAR
STARTCHAR 004D
ENCODING 77
SWIDTH 1214 0
DWIDTH 34 0
BBX 35 22 0 -1
BITMAP
1F00E03800
3F83F07C00
7FC3F8FE00
F9E7F9FE00
F0E7398F00
E06E1F8F00
E06E1F0F00
F06E1F0F00
783C1F0F00
7C3C1E0F00
3E3C1E0F00
1E381E0F00
00381E0F00
00381E0F00
00381E0F00
00381E0F00
00381E0F00
00381E0F00
00381C0F00
00383C0F80
00383C07E0
00301801E0
ENDCHAR
STARTCHAR 004E
ENCODING 78
SWIDTH 857 0
DWIDTH 24 0
BBX 24 23 1 -1
BITMAP
3C03C0
7E07E0
FF0FE0
F39FF0
E39CF0
E19870
E1B078
F1F078
F1F078
79F078
7CF078
1CE078
00E078
00E078
00E078
00E078
00E078
00E078
00E078
01E07C
01E03F
00E01F
000003
ENDCHAR
STARTCHAR 004F
ENCODING 79
SWIDTH 607 0
DWIDTH 17 0
BBX 19 23 0 0
BITMAP
01F000
07F800
1FFC40
3E3CE0
7F1FE0
7F1FE0
7B9FC0
F3FF80
F1FF00
F07F00
F00700
F00700
F00700
F00700
F00700
F80700
780700
7C0E00
3E0E00
3FFE00
1FFC00
0FF800
03F000
ENDCHAR
STARTCHAR 0050
ENCODING 80
SWIDTH 678 0
DWIDTH 19 0
BBX 18 30 0 -5
BITMAP
600000
F00000
F3F800
7FFC00
3FFE00
3E1E00
3E0F00
3E0780
3F0780
7F0780
770380
7783C0
7783C0
7383C0
F3C380
E3C780
E1DF80
E1FF00
E1FE00
E1F000
E1E000
E1E000
F1E000
71E000
71E000
79C000
7FC000
3FC000
1F8000
0F0000
ENDCHAR
STARTCHAR 0051
ENCODING 81
SWIDTH 714 0
DWIDTH 20 0
BBX 22 28 -1 -6
BITMAP
0FC000
3FF000
7FFC00
7EFE00
781F00
780780
7803C0
7801C0
3C01C0
3F80E0
1F80E0
0FC0E0
0380E0
0000E0
0000E0
3F81C0
7FE1C0
7FF3C0
F0FF80
703F00
7C7E00
3FFC00
3FFE00
0FEF00
000F80
0007FC
0003FC
0000FC
ENDCHAR
STARTCHAR 0052
ENCODING 82
SWIDTH 678 0
DWIDTH 19 0
BBX 19 23 1 0
BITMAP
040000
0E0000
0E7800
0FFC00
07FE00
070E00
070E00
1F0E00
1F0E00
3B0C00
7B1C00
73F800
73FC00
E3DE00
E30E00
E30E00
E30F00
E30F00
E30F00
670700
7E07E0
3C03E0
0000E0
ENDCHAR
STARTCHAR 0053
ENCODING 83
SWIDTH 642 0
DWIDTH 18 0
BBX 20 25 0 -2
BITMAP
07F000
0FFC00
1FFE00
1C1E00
380F00
380700
1C0000
1C0000
0F0000
0FC000
03F000
01FC00
007E00
001F00
000F80
0003C0
3FC3C0
7FF1C0
FFFFC0
E07FC0
701FF0
780FF0
3FFF30
1FFE00
07F800
ENDCHAR
STARTCHAR 0054
ENCODING 84
SWIDTH 607 0
DWIDTH 17 0
BBX 19 27 -1 -5
BITMAP
1FF1E0
7FFFE0
FFFFE0
F07FE0
F00F80
780E00
780E00
000E00
000700
000700
000700
000700
000700
000700
000700
000700
000700
080700
1E0700
1E0700
3C0F00
3C0E00
1C0E00
1F1E00
1FFC00
0FF800
03F000
ENDCHAR
STARTCHAR 0055
ENCODING 85
SWIDTH 928 0
DWIDTH 26 0
BBX 27 23 1 0
BITMAP
1F003800
7FC07800
7FE07800
F1E07800
E0E07800
E0707800
E0707800
F0707C00
7C707C00
7C707C00
3C707C00
00707C00
00F07C00
00F0FC00
00F0FC00
00F0FC00
0071DE00
0079CE00
007FCF00
007F8F80
003F87E0
001F03E0
00040000
ENDCHAR
STARTCHAR 0056
ENCODING 86
SWIDTH 642 0
DWIDTH 18 0
BBX 20 22 0 0
BITMAP
781800
7C3E00
F83E00
F83F00
F81F00
F80F80
F807E0
F807F0
7807A0
780780
780780
780780
780780
780700
3C0700
3C0F00
3C1E00
1E1E00
1FFC00
0FF800
07F000
03C000
ENDCHAR
STARTCHAR 0057
ENCODING 87
SWIDTH 892 0
DWIDTH 25 0
BBX 26 23 1 -1
BITMAP
60004000
F800F000
F801F800
F001FC00
F000FC00
F000FC00
F0007F80
F0701FC0
F0781FC0
F0F81C00
F0F81C00
F0FC1C00
F0FC1C00
F0F81C00
F0781C00
78781C00
78301C00
78783C00
3CFC7C00
3FFFF800
1FFFF800
0FE7F000
0781E000
ENDCHAR
STARTCHAR 0058
ENCODING 88
SWIDTH 750 0
DWIDTH 21 0
BBX 25 28 -3 -6
BITMAP
3C00F800
7E01FC00
7F03FE00
7F83CE00
03838000
03C70000
01E70000
01E70000
00FE0000
007E0000
007E0000
003C0000
003C0000
001C0000
001E0000
001E0000
003F0000
003F8000
003BC000
0079F000
0078FF80
00F07F80
00F01F80
C1E00000
FFE00000
FFC00000
7F800000
1C000000
ENDCHAR
STARTCHAR 0059
ENCODING 89
SWIDTH 892 0
DWIDTH 25 0
BBX 26 33 0 -9
BITMAP
00003800
1F007800
7FC07800
7FE07800
F3E07800
E1E07800
E0F07800
E0F07800
E0F07800
F0F07800
70F07C00
78F07C00
38F0FC00
01F0FC00
01F0FC00
01E0DC00
01E1DC00
01E19C00
01F39C00
01FF9C00
00FF1C00
00FF1FC0
007E1FC0
00187F80
0001FC00
0003DC00
00039C00
00071C00
00073800
0007F800
0007F000
0007E000
00038000
ENDCHAR
STARTCHAR 005A
ENCODING 90
SWIDTH 571 0
DWIDTH 16 0
BBX 19 30 -2 -8
BITMAP
1FE000
7FF800
FFFC00
F83E00
F01E00
F00E00
F00E00
F80E00
780E00
001C00
001C00
07B800
07F000
0FF800
07FC00
003E00
001F00
000F00
000F00
000F00
03CF00
0FFFE0
1FFFE0
3F0FC0
3C0F00
3C1E00
3E3C00
3FFC00
1FF000
07C000
ENDCHAR
STARTCHAR 005B
ENCODING 91
SWIDTH 428 0
DWIDTH 12 0
BBX 8 28 2 -7
BITMAP
7F
FF
F0
F0
F0
F0
F0
F0
F0
F0
F0
F0
F0
F0
F0
F0
F0
F0
F0
F0
F0
F0
F0
F0
F0
F0
FF
7F
ENDCHAR
STARTCHAR 005C
ENCODING 92
SWIDTH 392 0
DWIDTH 11 0
BBX 9 25 1 -3
BITMAP
F000
F000
7000
7000
7000
7800
3800
3800
3800
3800
1C00
1C00
1C00
1C00
1E00
0E00
0E00
0E00
0F00
0F00
0700
0700
0780
0780
0300
ENDCHAR
STARTCHAR 005D
ENCODING 93
SWIDTH 428 0
DWIDTH 12 0
BBX 7 28 2 -7
BITMAP
FC
FE
FE
0E
0E
0E
0E
0E
0E
0E
0E
0E
0E
0E
0E
0E
0E
0E
0E
0E
0E
0E
0E
0E
0E
0E
FE
FC
ENDCHAR
STARTCHAR 005E
ENCODING 94
SWIDTH 1000 0
DWIDTH 28 0
BBX 14 8 7 13
BITMAP
0700
0F80
1FC0
1DE0
3CF0
7878
F03C
F01C
ENDCHAR
STARTCHAR 005F
ENCODING 95
SWIDTH 500 0
DWIDTH 14 0
BBX 14 3 0 -1
BITMAP
FFFC
FFFC
FFFC
ENDCHAR
STARTCHAR 0060
ENCODING 96
SWIDTH 500 0
DWIDTH 14 0
BBX 8 6 3 14
BITMAP
60
F8
7C
1E
0F
06
ENDCHAR
STARTCHAR 0061
ENCODING 97
SWIDTH 535 0
DWIDTH 15 0
BBX 15 13 0 0
BITMAP
07B0
1FF8
3FF8
3878
7870
7070
7070
7070
70F0
70F0
7FB8
FF9E
EF0E
ENDCHAR
STARTCHAR 0062
ENCODING 98
SWIDTH 464 0
DWIDTH 13 0
BBX 13 22 0 0
BITMAP
0C00
1C00
3E00
3E00
3E00
3E00
3E00
3E00
FC00
FC00
B880
39E0
39F0
38F0
3838
3838
3C38
3C38
3C38
3E70
FFF0
E3E0
ENDCHAR
STARTCHAR 0063
ENCODING 99
SWIDTH 357 0
DWIDTH 10 0
BBX 11 13 0 0
BITMAP
1F00
3F80
79C0
F1C0
F080
F000
F000
7000
7800
3E00
FFE0
EFE0
C3E0
ENDCHAR
STARTCHAR 0064
ENCODING 100
SWIDTH 535 0
DWIDTH 15 0
BBX 15 22 0 0
BITMAP
0030
0070
0070
0070
0070
0070
0070
0070
0070
07F0
0FF0
1EF0
3870
3870
7070
7070
7070
7070
78F0
7FF8
FF9E
EF0E
ENDCHAR
STARTCHAR 0065
ENCODING 101
SWIDTH 357 0
DWIDTH 10 0
BBX 10 13 0 0
BITMAP
3E00
7F00
F780
E380
E380
E380
E380
F380
7700
7F00
3E00
F3C0
E1C0
ENDCHAR
STARTCHAR 0066
ENCODING 102
SWIDTH 392 0
DWIDTH 11 0
BBX 12 29 0 -7
BITMAP
0F00
1F80
3F80
3DC0
39C0
79C0
78C0
70C0
70C0
70C0
71C0
71C0
7180
7B80
7B80
7F00
7E00
7E00
7F00
7780
F3F0
F3F0
71C0
79C0
39C0
39C0
1FC0
0F80
0300
ENDCHAR
STARTCHAR 0067
ENCODING 103
SWIDTH 535 0
DWIDTH 15 0
BBX 16 22 -1 -8
BITMAP
0038
0738
1FF8
3FF8
3E38
3C38
7C38
7C38
7878
7878
3878
3CF8
FFBE
FF7F
01F8
03F8
03F8
07D8
0798
07B0
03E0
01C0
ENDCHAR
STARTCHAR 0068
ENCODING 104
SWIDTH 535 0
DWIDTH 15 0
BBX 16 21 0 -2
BITMAP
0C00
1E00
1E00
1E00
1E00
1C00
1C00
1C00
1CF0
1DF8
1D98
1F18
1B18
1E38
1E38
3C30
3C30
7C38
FC1F
D80F
1800
ENDCHAR
STARTCHAR 0069
ENCODING 105
SWIDTH 250 0
DWIDTH 7 0
BBX 8 22 0 0
BITMAP
30
78
78
38
00
00
00
00
18
38
38
38
38
38
38
38
38
38
3C
FE
CF
C7
ENDCHAR
STARTCHAR 006A
ENCODING 106
SWIDTH 285 0
DWIDTH 8 0
BBX 8 29 0 -7
BITMAP
30
78
7C
3C
00
00
00
00
38
3C
3C
3C
3C
3C
3C
3C
3C
3C
7C
FD
DF
9F
3C
3C
7C
7C
7C
78
38
ENDCHAR
STARTCHAR 006B
ENCODING 107
SWIDTH 464 0
DWIDTH 13 0
BBX 14 22 0 -2
BITMAP
2000
7000
7000
7000
7000
7000
7000
7000
7040
70E0
70E0
70E0
70E0
70C0
7FC0
7FC0
7DE0
70E0
70F0
70F0
F07C
3000
ENDCHAR
STARTCHAR 006C
ENCODING 108
SWIDTH 285 0
DWIDTH 8 0
BBX 8 22 0 0
BITMAP
30
38
78
7C
7C
74
74
74
74
74
74
74
34
34
34
3C
1C
1C
1C
FF
EE
C6
ENDCHAR
STARTCHAR 006D
ENCODING 109
SWIDTH 750 0
DWIDTH 21 0
BBX 21 13 0 0
BITMAP
39E380
7BF7C0
7BF7E0
3FFEE0
3E7CE0
3C78E0
3C78E0
3870E0
3870E0
3870E0
3870E0
F87078
F83038
ENDCHAR
STARTCHAR 006E
ENCODING 110
SWIDTH 500 0
DWIDTH 14 0
BBX 14 13 0 0
BITMAP
38C0
79E0
3BE0
3AE0
3CE0
3CE0
3CE0
38E0
38E0
38E0
3870
F87C
F83C
ENDCHAR
STARTCHAR 006F
ENCODING 111
SWIDTH 428 0
DWIDTH 12 0
BBX 12 13 0 0
BITMAP
1800
3B00
7F80
73F0
E3F0
E0E0
E0E0
E0E0
60E0
70E0
79C0
FFC0
E780
ENDCHAR
STARTCHAR 0070
ENCODING 112
SWIDTH 500 0
DWIDTH 14 0
BBX 14 22 0 -6
BITMAP
7000
7800
79C0
7BE0
7FF0
3C70
3C38
3838
3838
3838
3838
3A70
7FF0
FFFC
FFFC
3800
3800
3800
3800
3800
3800
3000
ENDCHAR
STARTCHAR 0071
ENCODING 113
SWIDTH 571 0
DWIDTH 16 0
BBX 16 21 0 -9
BITMAP
0760
1FE0
3FE0
3CE0
7860
7060
7070
7070
7070
7070
79F0
FFFF
FF7F
007E
007E
006E
0066
0066
0036
003E
001C
ENDCHAR
STARTCHAR 0072
ENCODING 114
SWIDTH 428 0
DWIDTH 12 0
BBX 13 16 0 0
BITMAP
2000
7000
7800
7800
3E00
1F80
1F80
19C0
19C0
19C0
19C0
19C0
19C0
30C0
E0F8
C078
ENDCHAR
STARTCHAR 0073
ENCODING 115
SWIDTH 464 0
DWIDTH 13 0
BBX 12 14 0 1
BITMAP
1E00
1E00
1E00
0E00
0F00
0F80
1DC0
1DC0
1CE0
38E0
38E0
7CE0
FFF0
CFF0
ENDCHAR
STARTCHAR 0074
ENCODING 116
SWIDTH 321 0
DWIDTH 9 0
BBX 10 20 0 1
BITMAP
1800
3800
3800
3800
3800
3800
3800
3800
FF80
FF00
3800
3800
3800
3800
3800
3800
3C00
3C00
FFC0
E380
ENDCHAR
STARTCHAR 0075
ENCODING 117
SWIDTH 500 0
DWIDTH 14 0
BBX 14 13 0 0
BITMAP
3860
3870
3870
3870
3870
3870
3870
3870
3870
38F0
3DB8
FF9C
EF0C
ENDCHAR
STARTCHAR 0076
ENCODING 118
SWIDTH 428 0
DWIDTH 12 0
BBX 12 13 0 0
BITMAP
71C0
79F0
71E0
71E0
7060
7060
7060
7040
70C0
78C0
FF80
FF80
CE00
ENDCHAR
STARTCHAR 0077
ENCODING 119
SWIDTH 642 0
DWIDTH 18 0
BBX 18 13 0 0
BITMAP
600680
708FC0
71CF80
71C700
71C300
71C100
71C100
71C300
71E300
79E300
7BF600
FF7E00
FE3C00
ENDCHAR
STARTCHAR 0078
ENCODING 120
SWIDTH 392 0
DWIDTH 11 0
BBX 12 15 0 -1
BITMAP
E0C0
F1E0
71C0
3B80
1B80
1F00
0F00
0F00
0E00
0F00
1F00
7BC0
F9F0
E0F0
8010
ENDCHAR
STARTCHAR 0079
ENCODING 121
SWIDTH 500 0
DWIDTH 14 0
BBX 15 21 0 -9
BITMAP
3838
3838
3838
3838
3838
3838
3838
3838
3878
3CF8
7FF8
FFBE
FF3E
0078
0078
00F8
01D8
01D8
01F8
00F8
0070
ENDCHAR
STARTCHAR 007A
ENCODING 122
SWIDTH 428 0
DWIDTH 12 0
BBX 12 20 0 -7
BITMAP
7F80
FFC0
C3C0
C1C0
E1C0
21C0
03C0
0F80
7F00
7FC0
03F0
0FF0
1FF0
3C70
3870
3870
3860
1FE0
1FC0
0F80
ENDCHAR
STARTCHAR 007B
ENCODING 123
SWIDTH 500 0
DWIDTH 14 0
BBX 11 28 2 -7
BITMAP
0080
0380
07C0
0F80
0F00
0E00
0E00
0E00
0E00
0E00
0E00
0E00
1E00
7C00
F800
FC00
1C00
1C00
0E00
0E00
0E00
0E00
0E00
0E00
0F00
07C0
03E0
01C0
ENDCHAR
STARTCHAR 007C
ENCODING 124
SWIDTH 500 0
DWIDTH 14 0
BBX 4 28 5 -7
BITMAP
E0
F0
F0
F0
F0
F0
F0
F0
F0
F0
F0
F0
F0
F0
F0
F0
F0
F0
F0
F0
F0
F0
F0
F0
F0
F0
E0
E0
ENDCHAR
STARTCHAR 007D
ENCODING 125
SWIDTH 500 0
DWIDTH 14 0
BBX 11 27 2 -6
BITMAP
2000
7800
7C00
3E00
0E00
0E00
0E00
0E00
0E00
0E00
0E00
0E00
0700
03E0
03E0
0700
0700
0E00
0E00
0E00
0E00
0E00
0E00
3E00
FC00
F800
6000
ENDCHAR
STARTCHAR 007E
ENCODING 126
SWIDTH 928 0
DWIDTH 26 0
BBX 19 6 3 4
BITMAP
1C0040
7FE1E0
FFFFE0
FFFFC0
01FF80
000E00
ENDCHAR
STARTCHAR 00A0
ENCODING 160
SWIDTH 535 0
DWIDTH 15 0
BBX 0 0 0 0
BITMAP
ENDCHAR
STARTCHAR 00A1
ENCODING 161
SWIDTH 285 0
DWIDTH 8 0
BBX 5 21 2 2
BITMAP
60
F0
F0
60
00
60
70
70
70
70
70
70
70
70
70
70
78
78
78
78
78
ENDCHAR
STARTCHAR 00A2
ENCODING 162
SWIDTH 535 0
DWIDTH 15 0
BBX 12 18 2 1
BITMAP
0700
0700
0F80
3FE0
7FF0
73E0
E300
C300
C300
C300
E300
7F00
7FE0
3FE0
0FE0
0300
0300
0300
ENDCHAR
STARTCHAR 00A3
ENCODING 163
SWIDTH 571 0
DWIDTH 16 0
BBX 15 22 1 -1
BITMAP
0FC0
1FE0
1FF0
1870
1C30
1C00
1C00
1C00
0C00
7FC0
7FC0
0700
0700
0700
0700
0700
7F00
FF00
FFCE
FFFE
7FFE
30FC
ENDCHAR
STARTCHAR 00A4
ENCODING 164
SWIDTH 607 0
DWIDTH 17 0
BBX 0 0 0 0
BITMAP
ENDCHAR
STARTCHAR 00A5
ENCODING 165
SWIDTH 535 0
DWIDTH 15 0
BBX 14 23 1 0
BITMAP
0010
0018
603C
E038
F078
7870
38F0
3CE0
1CE0
0FE0
7FF8
7FF8
0780
7FFC
7FE0
0380
0380
0380
0380
0380
0380
0380
0300
ENDCHAR
STARTCHAR 00A6
ENCODING 166
SWIDTH 500 0
DWIDTH 14 0
BBX 3 27 5 -5
BITMAP
E0
E0
E0
E0
E0
E0
E0
E0
E0
E0
E0
E0
00
00
00
E0
E0
E0
E0
E0
E0
E0
E0
E0
E0
E0
40
ENDCHAR
STARTCHAR 00A7
ENCODING 167
SWIDTH 535 0
DWIDTH 15 0
BBX 10 23 2 -2
BITMAP
1F80
3FC0
71C0
7000
3800
3C00
1E00
7F80
FFC0
E1C0
E0C0
E040
F0C0
F9C0
7FC0
3F00
07C0
03C0
E1C0
F1C0
FFC0
7F80
1E00
ENDCHAR
STARTCHAR 00A8
ENCODING 168
SWIDTH 500 0
DWIDTH 14 0
BBX 9 4 4 14
BITMAP
6300
F780
F780
F780
ENDCHAR
STARTCHAR 00A9
ENCODING 169
SWIDTH 821 0
DWIDTH 23 0
BBX 17 15 3 4
BITMAP
0FF000
1C1C00
300600
63E300
673300
460100
C60180
C60180
C61180
473100
63F300
61E300
300600
1C1C00
07F000
ENDCHAR
STARTCHAR 00AA
ENCODING 170
SWIDTH 392 0
DWIDTH 11 0
BBX 0 0 0 0
BITMAP
ENDCHAR
STARTCHAR 00AB
ENCODING 171
SWIDTH 464 0
DWIDTH 13 0
BBX 11 11 1 1
BITMAP
0860
1CE0
39E0
73C0
E380
E700
E380
73C0
79C0
38E0
1860
ENDCHAR
STARTCHAR 00AC
ENCODING 172
SWIDTH 821 0
DWIDTH 23 0
BBX 18 9 3 4
BITMAP
7FFFC0
FFFFC0
FFFFC0
3FFFC0
0001C0
0001C0
0001C0
0001C0
0001C0
ENDCHAR
STARTCHAR 00AE
ENCODING 174
SWIDTH 821 0
DWIDTH 23 0
BBX 16 15 4 4
BITMAP
07E0
1838
200C
4004
CFC6
8C62
8C63
8C63
8FC3
8CC3
CCE2
4C72
6424
3818
07E0
ENDCHAR
STARTCHAR 00AF
ENCODING 175
SWIDTH 500 0
DWIDTH 14 0
BBX 8 2 5 17
BITMAP
FF
FF
ENDCHAR
STARTCHAR 00B0
ENCODING 176
SWIDTH 321 0
DWIDTH 9 0
BBX 0 0 0 0
BITMAP
ENDCHAR
STARTCHAR 00B1
ENCODING 177
SWIDTH 821 0
DWIDTH 23 0
BBX 18 21 3 2
BITMAP
01C000
01C000
01C000
01C000
01C000
01C000
01C000
FFFF80
FFFF80
FFFF80
01C000
01C000
01C000
01C000
01C000
01C000
01C000
000000
FFFFC0
FFFFC0
FFFFC0
ENDCHAR
STARTCHAR 00B2
ENCODING 178
SWIDTH 357 0
DWIDTH 10 0
BBX 0 0 0 0
BITMAP
ENDCHAR
STARTCHAR 00B3
ENCODING 179
SWIDTH 357 0
DWIDTH 10 0
BBX 0 0 0 0
BITMAP
ENDCHAR
STARTCHAR 00B4
ENCODING 180
SWIDTH 500 0
DWIDTH 14 0
BBX 8 6 5 14
BITMAP
07
1F
3E
78
F0
60
ENDCHAR
STARTCHAR 00B5
ENCODING 181
SWIDTH 607 0
DWIDTH 17 0
BBX 17 22 1 -5
BITMAP
603800
F03800
F03800
F03800
F03800
F03800
F03800
F03800
F03800
F03800
F03800
F03800
F07C00
FCFC00
FFFF80
FFCF80
F38300
F00000
F00000
F00000
F00000
700000
ENDCHAR
STARTCHAR 00B6
ENCODING 182
SWIDTH 607 0
DWIDTH 17 0
BBX 15 26 0 -5
BITMAP
0FFC
3FFE
7FFE
FF34
FF30
FF30
FF30
FF30
7F30
7F30
3F30
0730
0730
0730
0730
0730
0730
0730
0738
0738
0738
0738
0738
0738
0738
0738
ENDCHAR
STARTCHAR 00B7
ENCODING 183
SWIDTH 250 0
DWIDTH 7 0
BBX 0 0 0 0
BITMAP
ENDCHAR
STARTCHAR 00B8
ENCODING 184
SWIDTH 500 0
DWIDTH 14 0
BBX 7 7 3 -7
BITMAP
30
38
3E
0E
CE
FE
18
ENDCHAR
STARTCHAR 00B9
ENCODING 185
SWIDTH 285 0
DWIDTH 8 0
BBX 0 0 0 0
BITMAP
ENDCHAR
STARTCHAR 00BA
ENCODING 186
SWIDTH 321 0
DWIDTH 9 0
BBX 0 0 0 0
BITMAP
ENDCHAR
STARTCHAR 00BB
ENCODING 187
SWIDTH 464 0
DWIDTH 13 0
BBX 11 11 1 1
BITMAP
C200
E380
F380
79C0
3CE0
1CE0
38E0
39C0
73C0
E380
C300
ENDCHAR
STARTCHAR 00BC
ENCODING 188
SWIDTH 821 0
DWIDTH 23 0
BBX 0 0 0 0
BITMAP
ENDCHAR
STARTCHAR 00BD
ENCODING 189
SWIDTH 928 0
DWIDTH 26 0
BBX 0 0 0 0
BITMAP
ENDCHAR
STARTCHAR 00BE
ENCODING 190
SWIDTH 964 0
DWIDTH 27 0
BBX 0 0 0 0
BITMAP
ENDCHAR
STARTCHAR 00BF
ENCODING 191
SWIDTH 428 0
DWIDTH 12 0
BBX 9 21 2 0
BITMAP
3000
7C00
7C00
3C00
0000
1800
1800
1800
1800
3800
3800
7000
7000
E000
E380
E380
E380
F380
FF80
7F00
1E00
ENDCHAR
STARTCHAR 00C0
ENCODING 192
SWIDTH 642 0
DWIDTH 18 0
BBX 19 29 1 1
BITMAP
01C000
01F000
00F800
003C00
001E00
000400
000000
001000
00FC00
03F800
07F000
0FC700
1F0700
3E0700
3C0700
7C0F00
780F00
780F00
F00F00
F00F00
F00F00
F01F00
F01F00
F03F00
783700
7CF700
3FE780
1FC3E0
0F81E0
ENDCHAR
STARTCHAR 00C1
ENCODING 193
SWIDTH 642 0
DWIDTH 18 0
BBX 19 29 1 1
BITMAP
000600
000F00
003E00
007C00
00F000
00E000
000000
001000
00FC00
03F800
07F000
0FC700
1F0700
3E0700
3C0700
7C0F00
780F00
780F00
F00F00
F00F00
F00F00
F01F00
F01F00
F03F00
783700
7CF700
3FE780
1FC3E0
0F81E0
ENDCHAR
STARTCHAR 00C2
ENCODING 194
SWIDTH 642 0
DWIDTH 18 0
BBX 19 28 1 0
BITMAP
007000
00F800
01FC00
01CE00
038700
020000
001000
00FC00
03F800
07F000
0FC700
1F0700
3E0700
3C0700
7C0F00
780F00
780F00
F00F00
F00F00
F00F00
F01F00
F01F00
F03F00
783700
7CF700
3FE780
1FC3E0
0F81E0
ENDCHAR
STARTCHAR 00C3
ENCODING 195
SWIDTH 642 0
DWIDTH 18 0
BBX 19 27 1 1
BITMAP
00E600
01FE00
019C00
010000
000000
001000
00FC00
03F800
07F000
0FC700
1F0700
3E0700
3C0700
7C0F00
780F00
780F00
F00F00
F00F00
F00F00
F01F00
F01F00
F03F00
783700
7CF700
3FE780
1FC3E0
0F81E0
ENDCHAR
STARTCHAR 00C4
ENCODING 196
SWIDTH 642 0
DWIDTH 18 0
BBX 19 27 1 1
BITMAP
01CF00
01EF00
01EF00
000000
000000
001000
00FC00
03F800
07F000
0FC700
1F0700
3E0700
3C0700
7C0F00
780F00
780F00
F00F00
F00F00
F00F00
F01F00
F01F00
F03F00
783700
7CF700
3FE780
1FC3E0
0F81E0
ENDCHAR
STARTCHAR 00C5
ENCODING 197
SWIDTH 642 0
DWIDTH 18 0
BBX 19 31 0 0
BITMAP
007000
00F800
018C00
010400
018400
01CC00
00F800
003000
000000
001800
00FC00
01FC00
07F000
0FC300
1F8700
1F0700
3E0700
3C0700
7C0700
780700
780F00
780F00
F00F00
F00F00
F01F00
781F00
783F00
7C7700
3FE380
1FE3E0
0781E0
ENDCHAR
STARTCHAR 00C6
ENCODING 198
SWIDTH 1000 0
DWIDTH 28 0
BBX 0 0 0 0
BITMAP
ENDCHAR
STARTCHAR 00C7
ENCODING 199
SWIDTH 607 0
DWIDTH 17 0
BBX 16 36 -1 -14
BITMAP
0070
03FC
07FE
0FDE
0F0E
1E0E
3E0E
3C1E
3C3C
7878
7878
7820
7000
F000
F000
F000
F000
F000
F000
F006
F007
780F
780F
780E
7C1E
3FFC
3FFC
1FF8
0FF0
03E0
0180
01E0
01F0
0030
0770
07F0
ENDCHAR
STARTCHAR 00C8
ENCODING 200
SWIDTH 535 0
DWIDTH 15 0
BBX 14 36 1 -6
BITMAP
1800
3E00
1F00
0780
03C0
01C0
0000
07C0
0FF0
1FF8
3E38
3C3C
781C
7800
7800
7800
7800
79C0
3FE0
3FE0
1FC0
3C00
7800
7800
F000
F008
F01C
F01C
F03C
F03C
F878
FCF8
7FF0
7FE0
3FC0
0200
ENDCHAR
STARTCHAR 00C9
ENCODING 201
SWIDTH 535 0
DWIDTH 15 0
BBX 14 36 1 -6
BITMAP
0018
003C
00F8
01F0
03C0
0380
0000
07C0
0FF0
1FF8
3E38
3C3C
781C
7800
7800
7800
7800
79C0
3FE0
3FE0
1FC0
3C00
7800
7800
F000
F008
F01C
F01C
F03C
F03C
F878
FCF8
7FF0
7FE0
3FC0
0200
ENDCHAR
STARTCHAR 00CA
ENCODING 202
SWIDTH 535 0
DWIDTH 15 0
BBX 14 35 1 -6
BITMAP
0780
0FC0
1EE0
1C70
3030
0000
07C0
1FF0
3FF8
3E38
7C3C
781C
7800
F800
F800
7800
79C0
7FE0
3FE0
1FC0
3C00
7800
7800
F000
F008
F01C
F01C
F03C
F03C
F878
FCF8
7FF0
7FE0
3FC0
0200
ENDCHAR
STARTCHAR 00CB
ENCODING 203
SWIDTH 535 0
DWIDTH 15 0
BBX 14 35 1 -7
BITMAP
0420
0E70
0F70
0F70
0000
0000
07C0
0FF0
1FF8
3E38
3C3C
781C
7800
7800
7800
7800
79C0
3FE0
3FE0
1FC0
3C00
7800
7800
F000
F008
F01C
F01C
F03C
F03C
F878
FCF8
7FF0
7FE0
3FC0
0200
ENDCHAR
STARTCHAR 00CC
ENCODING 204
SWIDTH 535 0
DWIDTH 15 0
BBX 11 33 2 -2
BITMAP
6000
F800
7C00
1F00
0F80
0300
0000
0000
0E00
3F00
3F80
7380
63C0
63C0
E1C0
E1E0
E1E0
E1E0
71E0
71E0
71E0
38E0
3DE0
1FE0
0FE0
03E0
00E0
E0E0
E0E0
F1C0
7FC0
3F80
1E00
ENDCHAR
STARTCHAR 00CD
ENCODING 205
SWIDTH 535 0
DWIDTH 15 0
BBX 11 32 2 -2
BITMAP
01E0
07E0
0F80
1E00
1C00
0000
0000
0E00
3F00
3F80
7380
63C0
63C0
E1C0
E1E0
E1E0
E1E0
71E0
71E0
71E0
38E0
3DE0
1FE0
0FE0
03E0
00E0
E0E0
E0E0
F1C0
7FC0
3F80
1E00
ENDCHAR
STARTCHAR 00CE
ENCODING 206
SWIDTH 535 0
DWIDTH 15 0
BBX 11 31 2 -2
BITMAP
1E00
3F00
7B80
71C0
C0C0
0000
0E00
3F00
3F80
7380
63C0
63C0
E1C0
E1E0
E1E0
E1E0
71E0
71E0
71E0
38E0
3DE0
1FE0
0FE0
03E0
00E0
E0E0
E0E0
F1C0
7FC0
3F80
1E00
ENDCHAR
STARTCHAR 00CF
ENCODING 207
SWIDTH 535 0
DWIDTH 15 0
BBX 11 31 2 -2
BITMAP
79C0
7BC0
7BC0
1980
0000
0000
0E00
3F00
3F80
7380
63C0
63C0
E1C0
E1E0
E1E0
E1E0
71E0
71E0
71E0
38E0
3DE0
1FE0
0FE0
03E0
00E0
E0E0
E0E0
F1C0
7FC0
3F80
1E00
ENDCHAR
STARTCHAR 00D0
ENCODING 208
SWIDTH 821 0
DWIDTH 23 0
BBX 0 0 0 0
BITMAP
ENDCHAR
STARTCHAR 00D1
ENCODING 209
SWIDTH 857 0
DWIDTH 24 0
BBX 24 29 1 -1
BITMAP
000180
007F80
007F00
00C000
000000
000000
3C03C0
7E07E0
FF0FE0
F39FF0
E39CF0
E19870
E1B078
F1F078
F1F078
79F078
7CF078
1CE078
00E078
00E078
00E078
00E078
00E078
00E078
00E078
01E07C
01E03F
00E01F
000003
ENDCHAR
STARTCHAR 00D2
ENCODING 210
SWIDTH 607 0
DWIDTH 17 0
BBX 19 31 0 1
BITMAP
060000
0F0000
0FC000
03E000
00F000
007000
000000
000000
01F000
07F800
1FFC40
3E3CE0
7F1FE0
7F1FE0
7B9FC0
F3FF80
F1FF00
F07F00
F00700
F00700
F00700
F00700
F00700
F80700
780700
7C0E00
3E0E00
3FFE00
1FFC00
0FF800
03F000
ENDCHAR
STARTCHAR 00D3
ENCODING 211
SWIDTH 607 0
DWIDTH 17 0
BBX 19 30 0 1
BITMAP
003800
00F800
01F000
03C000
078000
020000
000000
01F000
07F800
1FFC40
3E3CE0
7F1FE0
7F1FE0
7B9FC0
F3FF80
F1FF00
F07F00
F00700
F00700
F00700
F00700
F00700
F80700
780700
7C0E00
3E0E00
3FFE00
1FFC00
0FF800
03F000
ENDCHAR
STARTCHAR 00D4
ENCODING 212
SWIDTH 607 0
DWIDTH 17 0
BBX 19 30 0 0
BITMAP
01C000
03E000
07F000
0F3800
1C1800
000000
000000
01E000
07F800
3FFC40
7E3CE0
7F1FE0
FF1FE0
FB9FC0
F3FF80
F1FF00
F07F00
F00700
F00700
F00700
F00700
F00700
F80700
F80700
7C0E00
7E0E00
3FFE00
1FFC00
0FF800
03F000
ENDCHAR
STARTCHAR 00D5
ENCODING 213
SWIDTH 607 0
DWIDTH 17 0
BBX 19 29 0 0
BITMAP
000600
01FE00
01FC00
010000
000000
000000
01F000
07F800
1FFC40
3E3CE0
7F1FE0
7F1FE0
7B9FC0
F3FF80
F1FF00
F07F00
F00700
F00700
F00700
F00700
F00700
F80700
780700
7C0E00
3E0E00
3FFE00
1FFC00
0FF800
03F000
ENDCHAR
STARTCHAR 00D6
ENCODING 214
SWIDTH 607 0
DWIDTH 17 0
BBX 19 28 0 1
BITMAP
073800
073800
07B800
073800
000000
01F000
07F800
1FFC40
3E3CE0
7F1FE0
7F1FE0
7B9FC0
F3FF80
F1FF00
F07F00
F00700
F00700
F00700
F00700
F00700
F80700
780700
7C0E00
3E0E00
3FFE00
1FFC00
0FF800
03F000
ENDCHAR
STARTCHAR 00D7
ENCODING 215
SWIDTH 821 0
DWIDTH 23 0
BBX 15 13 4 3
BITMAP
0008
601C
F03C
7878
3EF0
1FE0
07C0
07F0
0F78
1E3C
3C1E
380C
3800
ENDCHAR
STARTCHAR 00D8
ENCODING 216
SWIDTH 535 0
DWIDTH 15 0
BBX 0 0 0 0
BITMAP
ENDCHAR
STARTCHAR 00D9
ENCODING 217
SWIDTH 928 0
DWIDTH 26 0
BBX 27 31 1 0
BITMAP
00300000
007C0000
003E0000
000F0000
00078000
00030000
00000000
00000000
1F003800
7FC07800
7FE07800
F1E07800
E0E07800
E0707800
E0707800
F0707C00
7C707C00
7C707C00
3C707C00
00707C00
00F07C00
00F0FC00
00F0FC00
00F0FC00
0071DE00
0079CE00
007FCF00
007F8F80
003F87E0
001F03E0
00040000
ENDCHAR
STARTCHAR 00DA
ENCODING 218
SWIDTH 928 0
DWIDTH 26 0
BBX 27 31 1 0
BITMAP
0000C000
0001E000
0007C000
000F8000
001E0000
001C0000
00000000
00000000
1F003800
7FC07800
7FE07800
F1E07800
E0E07800
E0707800
E0707800
F0707C00
7C707C00
7C707C00
3C707C00
00707C00
00F07C00
00F0FC00
00F0FC00
00F0FC00
0071DE00
0079CE00
007FCF00
007F8F80
003F87E0
001F03E0
00040000
ENDCHAR
STARTCHAR 00DB
ENCODING 219
SWIDTH 928 0
DWIDTH 26 0
BBX 27 30 1 -1
BITMAP
001C0000
003E0000
007F0000
00738000
00E1C000
00800000
00000000
1F003800
7FC07800
7FE07800
F1E07800
E0E07800
E0707800
E0707800
F0707C00
7C707C00
7C707C00
3C707C00
00707C00
00F07C00
00F0FC00
00F0FC00
00F0FC00
0071DE00
0079CE00
007FCF00
007F8F80
003F87E0
001F03E0
00040000
ENDCHAR
STARTCHAR 00DC
ENCODING 220
SWIDTH 928 0
DWIDTH 26 0
BBX 27 28 1 0
BITMAP
007B8000
007BC000
007B8000
00010000
00000000
1F003800
7FC07800
7FE07800
F1E07800
E0E07800
E0707800
E0707800
F0707C00
7C707C00
7C707C00
3C707C00
00707C00
00F07C00
00F0FC00
00F0FC00
00F0FC00
0071DE00
0079CE00
007FCF00
007F8F80
003F87E0
001F03E0
00040000
ENDCHAR
STARTCHAR 00DD
ENCODING 221
SWIDTH 892 0
DWIDTH 25 0
BBX 0 0 0 0
BITMAP
ENDCHAR
STARTCHAR 00DE
ENCODING 222
SWIDTH 714 0
DWIDTH 20 0
BBX 0 0 0 0
BITMAP
ENDCHAR
STARTCHAR 00DF
ENCODING 223
SWIDTH 714 0
DWIDTH 20 0
BBX 20 22 0 0
BITMAP
01F000
03F800
07FC00
071E00
060E00
0E0E00
0E0E00
061C00
061C00
063800
06FE00
06FF00
060F80
060380
0603C0
0603C0
0603C0
0C03C0
0C0380
1CFF00
F8FFF0
F0FFF0
ENDCHAR
STARTCHAR 00E0
ENCODING 224
SWIDTH 535 0
DWIDTH 15 0
BBX 15 20 0 1
BITMAP
1C00
1E00
0F80
07C0
01E0
00C0
0000
07B0
1FF8
3FF8
3878
7870
7070
7070
7070
70F0
70F0
7FB8
FF9E
EF0E
ENDCHAR
STARTCHAR 00E1
ENCODING 225
SWIDTH 535 0
DWIDTH 15 0
BBX 15 19 0 1
BITMAP
0018
003C
00F8
01F0
03C0
0380
07B0
1FF8
3FF8
3878
7870
7070
7070
7070
70F0
70F0
7FB8
FF9E
EF0E
ENDCHAR
STARTCHAR 00E2
ENCODING 226
SWIDTH 535 0
DWIDTH 15 0
BBX 15 19 0 1
BITMAP
03C0
07E0
07F0
0E38
1C18
0000
07B0
1FF8
3FF8
3878
7870
7070
7070
7070
70F0
70F0
7FB8
FF9E
EF0E
ENDCHAR
STARTCHAR 00E3
ENCODING 227
SWIDTH 535 0
DWIDTH 15 0
BBX 15 18 0 1
BITMAP
07B8
0FF0
0CE0
0000
0000
07B0
1FF8
3FF8
3878
7870
7070
7070
7070
70F0
70F0
7FB8
FF9E
EF0E
ENDCHAR
STARTCHAR 00E4
ENCODING 228
SWIDTH 535 0
DWIDTH 15 0
BBX 15 19 0 1
BITMAP
0E70
0F78
0F78
0630
0000
0000
07B0
1FF8
3FF8
3878
7870
7070
7070
7070
70F0
70F0
7FB8
FF9E
EF0E
ENDCHAR
STARTCHAR 00E5
ENCODING 229
SWIDTH 535 0
DWIDTH 15 0
BBX 15 22 0 0
BITMAP
03C0
07E0
0410
0410
0630
03F0
01E0
0000
0000
07B8
1FF8
3FF8
3878
7878
7078
7078
7070
70F0
70F0
7FB8
FFBE
CE0E
ENDCHAR
STARTCHAR 00E6
ENCODING 230
SWIDTH 678 0
DWIDTH 19 0
BBX 0 0 0 0
BITMAP
ENDCHAR
STARTCHAR 00E7
ENCODING 231
SWIDTH 392 0
DWIDTH 11 0
BBX 12 20 0 -8
BITMAP
1F00
3F80
79C0
F1C0
F080
F000
F000
7000
7800
3C00
FF80
EFE0
C3E0
0180
01C0
03E0
01F0
0070
0770
07E0
ENDCHAR
STARTCHAR 00E8
ENCODING 232
SWIDTH 357 0
DWIDTH 10 0
BBX 10 21 0 1
BITMAP
E000
F800
7C00
1F00
0F00
0200
0000
0000
3E00
7F00
F780
E380
E380
E380
E380
F380
7700
7F00
3E00
F3C0
E1C0
ENDCHAR
STARTCHAR 00E9
ENCODING 233
SWIDTH 357 0
DWIDTH 10 0
BBX 11 21 0 1
BITMAP
00E0
01E0
07C0
0F80
1E00
0C00
0000
0000
3E00
7F00
F780
E380
E380
E380
E380
F380
7700
7F00
3E00
F3C0
E1C0
ENDCHAR
STARTCHAR 00EA
ENCODING 234
SWIDTH 357 0
DWIDTH 10 0
BBX 10 19 0 1
BITMAP
1E00
3F00
7B80
71C0
C0C0
0000
3E00
7F00
F780
E380
E380
E380
E380
F380
7700
7F00
3E00
F3C0
E1C0
ENDCHAR
STARTCHAR 00EB
ENCODING 235
SWIDTH 357 0
DWIDTH 10 0
BBX 10 19 0 1
BITMAP
6380
F780
F780
7380
0000
0000
3E00
7F00
F780
E380
E380
E380
E380
F380
7700
7F00
3E00
F3C0
E1C0
ENDCHAR
STARTCHAR 00EC
ENCODING 236
SWIDTH 250 0
DWIDTH 7 0
BBX 8 20 0 1
BITMAP
E0
F8
7C
1E
0E
00
18
38
38
38
38
38
38
38
38
38
3C
FF
EF
C7
ENDCHAR
STARTCHAR 00ED
ENCODING 237
SWIDTH 250 0
DWIDTH 7 0
BBX 9 21 0 0
BITMAP
0100
0780
0F80
3E00
7C00
7000
2000
1800
3800
3800
3800
3800
3800
3800
3800
3800
3800
3C00
FF00
EF00
C700
ENDCHAR
STARTCHAR 00EE
ENCODING 238
SWIDTH 250 0
DWIDTH 7 0
BBX 10 21 0 0
BITMAP
1C00
3E00
7F00
7380
E1C0
8000
0000
3800
3800
3800
3800
3800
3800
3800
3800
3800
3800
7C00
FF00
EF00
C700
ENDCHAR
STARTCHAR 00EF
ENCODING 239
SWIDTH 250 0
DWIDTH 7 0
BBX 9 19 0 1
BITMAP
E700
F780
F780
6200
0000
1800
3800
3800
3800
3800
3800
3800
3800
3800
3800
3C00
FF00
EF00
C700
ENDCHAR
STARTCHAR 00F0
ENCODING 240
SWIDTH 428 0
DWIDTH 12 0
BBX 0 0 0 0
BITMAP
ENDCHAR
STARTCHAR 00F1
ENCODING 241
SWIDTH 535 0
DWIDTH 15 0
BBX 14 18 0 1
BITMAP
0730
0FF0
1DC0
0800
0000
38C0
79E0
3BE0
3AE0
3CE0
3CE0
3CE0
38E0
38E0
38E0
3870
F87C
F83C
ENDCHAR
STARTCHAR 00F2
ENCODING 242
SWIDTH 428 0
DWIDTH 12 0
BBX 12 20 0 1
BITMAP
1C00
1F00
0F80
03C0
01E0
0040
0000
1800
3B00
7F80
73F0
E3F0
E0E0
E0E0
E0E0
60E0
70E0
79C0
FFC0
E780
ENDCHAR
STARTCHAR 00F3
ENCODING 243
SWIDTH 428 0
DWIDTH 12 0
BBX 12 21 0 1
BITMAP
0070
00F0
03E0
07C0
0F00
0600
0000
0000
1800
3B00
7F80
73F0
E3F0
E0E0
E0E0
E0E0
60E0
70E0
79C0
FFC0
E780
ENDCHAR
STARTCHAR 00F4
ENCODING 244
SWIDTH 428 0
DWIDTH 12 0
BBX 12 20 0 0
BITMAP
0200
0F80
0FC0
1DE0
38E0
3020
0000
1800
3B00
7F80
73F0
E3F0
E0E0
E0E0
E0E0
60E0
70E0
79C0
FFC0
E780
ENDCHAR
STARTCHAR 00F5
ENCODING 245
SWIDTH 428 0
DWIDTH 12 0
BBX 12 18 0 1
BITMAP
0460
1FE0
3BC0
3000
0000
1800
3B00
7F80
73F0
E3F0
E0E0
E0E0
E0E0
60E0
70E0
79C0
FFC0
E780
ENDCHAR
STARTCHAR 00F6
ENCODING 246
SWIDTH 428 0
DWIDTH 12 0
BBX 12 19 0 1
BITMAP
18E0
3CE0
3CE0
1CE0
0000
0000
1800
3B00
7F80
73F0
E3F0
E0E0
E0E0
E0E0
60E0
70E0
79C0
FFC0
E780
ENDCHAR
STARTCHAR 00F7
ENCODING 247
SWIDTH 821 0
DWIDTH 23 0
BBX 17 15 3 0
BITMAP
018000
03C000
03E000
03C000
008000
000000
FFFF80
FFFF80
FFFF80
000000
008000
03C000
03E000
03E000
01C000
ENDCHAR
STARTCHAR 00F8
ENCODING 248
SWIDTH 428 0
DWIDTH 12 0
BBX 0 0 0 0
BITMAP
ENDCHAR
STARTCHAR 00F9
ENCODING 249
SWIDTH 535 0
DWIDTH 15 0
BBX 14 21 0 1
BITMAP
1800
3C00
3F00
0F80
03C0
01C0
0000
0000
3860
3870
3870
3870
3870
3870
3870
3870
3870
38F0
3DB8
FF9C
EF0C
ENDCHAR
STARTCHAR 00FA
ENCODING 250
SWIDTH 535 0
DWIDTH 15 0
BBX 14 21 0 1
BITMAP
0060
00F0
01E0
03C0
0700
0600
0000
0000
3860
3870
3870
3870
3870
3870
3870
3870
3870
38F0
3DB8
FF9C
EF0C
ENDCHAR
STARTCHAR 00FB
ENCODING 251
SWIDTH 535 0
DWIDTH 15 0
BBX 14 20 0 1
BITMAP
0780
07C0
0FE0
1C70
3830
0000
0000
3860
3870
3870
3870
3870
3870
3870
3870
3870
38F0
3DB8
FF9C
EF0C
ENDCHAR
STARTCHAR 00FC
ENCODING 252
SWIDTH 535 0
DWIDTH 15 0
BBX 14 19 0 1
BITMAP
3CE0
3CE0
3CE0
0840
0000
0000
3860
3870
3870
3870
3870
3870
3870
3870
3870
38F0
3DB8
FF9C
EF0C
ENDCHAR
STARTCHAR 00FD
ENCODING 253
SWIDTH 535 0
DWIDTH 15 0
BBX 0 0 0 0
BITMAP
ENDCHAR
STARTCHAR 00FE
ENCODING 254
SWIDTH 535 0
DWIDTH 15 0
BBX 0 0 0 0
BITMAP
ENDCHAR
STARTCHAR 00FF
ENCODING 255
SWIDTH 535 0
DWIDTH 15 0
BBX 15 27 0 -8
BITMAP
1E70
1EF0
1EF0
0420
0000
0000
3838
3838
3838
3838
3838
3838
3838
3838
3878
3CF8
7FF8
FFBE
FF3E
0078
0078
00F8
01D8
01D8
01F8
00F8
0070
ENDCHAR
STARTCHAR 0131
ENCODING 305
SWIDTH 250 0
DWIDTH 7 0
BBX 8 14 0 1
BITMAP
38
38
38
38
38
38
38
38
38
38
7C
FF
EF
C7
ENDCHAR
STARTCHAR 0141
ENCODING 321
SWIDTH 642 0
DWIDTH 18 0
BBX 0 0 0 0
BITMAP
ENDCHAR
STARTCHAR 0142
ENCODING 322
SWIDTH 285 0
DWIDTH 8 0
BBX 0 0 0 0
BITMAP
ENDCHAR
STARTCHAR 0152
ENCODING 338
SWIDTH 1000 0
DWIDTH 28 0
BBX 0 0 0 0
BITMAP
ENDCHAR
STARTCHAR 0153
ENCODING 339
SWIDTH 642 0
DWIDTH 18 0
BBX 0 0 0 0
BITMAP
ENDCHAR
STARTCHAR 0160
ENCODING 352
SWIDTH 642 0
DWIDTH 18 0
BBX 0 0 0 0
BITMAP
ENDCHAR
STARTCHAR 0161
ENCODING 353
SWIDTH 464 0
DWIDTH 13 0
BBX 0 0 0 0
BITMAP
ENDCHAR
STARTCHAR 0178
ENCODING 376
SWIDTH 892 0
DWIDTH 25 0
BBX 26 38 0 -9
BITMAP
00738000
00F78000
00F38000
00210000
00000000
00003800
1F007800
7FC07800
7FE07800
F3E07800
E1E07800
E0F07800
E0F07800
E0F07800
F0F07800
70F07C00
78F07C00
38F0FC00
01F0FC00
01F0FC00
01E0DC00
01E1DC00
01E19C00
01F39C00
01FF9C00
00FF1C00
00FF1FC0
007E1FC0
00187F80
0001FC00
0003DC00
00039C00
00071C00
00073800
0007F800
0007F000
0007E000
00038000
ENDCHAR
STARTCHAR 017D
ENCODING 381
SWIDTH 571 0
DWIDTH 16 0
BBX 0 0 0 0
BITMAP
ENDCHAR
STARTCHAR 017E
ENCODING 382
SWIDTH 392 0
DWIDTH 11 0
BBX 0 0 0 0
BITMAP
ENDCHAR
STARTCHAR 0192
ENCODING 402
SWIDTH 750 0
DWIDTH 21 0
BBX 19 20 1 1
BITMAP
007F00
01FFC0
03FFC0
07C1E0
0780C0
0F0000
0F0000
0F0000
0E0000
FFF800
FFF800
0FE000
0E0000
0F0000
0F0040
0F80E0
07C0E0
03FFE0
03FFC0
00FF80
ENDCHAR
STARTCHAR 02C6
ENCODING 710
SWIDTH 500 0
DWIDTH 14 0
BBX 10 6 3 14
BITMAP
0400
1E00
3F00
7B80
71C0
C040
ENDCHAR
STARTCHAR 02C7
ENCODING 711
SWIDTH 500 0
DWIDTH 14 0
BBX 10 6 3 15
BITMAP
E1C0
73C0
7F80
3F00
1E00
0400
ENDCHAR
STARTCHAR 02D8
ENCODING 728
SWIDTH 500 0
DWIDTH 14 0
BBX 9 4 4 14
BITMAP
C100
E380
7F00
3E00
ENDCHAR
STARTCHAR 02D9
ENCODING 729
SWIDTH 500 0
DWIDTH 14 0
BBX 3 3 7 15
BITMAP
E0
E0
E0
ENDCHAR
STARTCHAR 02DA
ENCODING 730
SWIDTH 500 0
DWIDTH 14 0
BBX 7 8 5 14
BITMAP
38
7C
C6
82
82
C6
7C
3C
ENDCHAR
STARTCHAR 02DB
ENCODING 731
SWIDTH 500 0
DWIDTH 14 0
BBX 6 6 1 -6
BITMAP
30
60
E0
E0
FC
7C
ENDCHAR
STARTCHAR 02DC
ENCODING 732
SWIDTH 500 0
DWIDTH 14 0
BBX 9 4 4 14
BITMAP
0180
7F80
7F00
C200
ENDCHAR
STARTCHAR 02DD
ENCODING 733
SWIDTH 500 0
DWIDTH 14 0
BBX 10 6 3 14
BITMAP
1DC0
3DC0
7B80
7700
E700
6600
ENDCHAR
STARTCHAR 0394
ENCODING 916
SWIDTH 678 0
DWIDTH 19 0
BBX 16 23 2 1
BITMAP
0100
0300
0380
0380
0780
07C0
07C0
0FC0
0EE0
0EE0
1EF0
1C70
1C70
3C78
3C38
3838
381C
781C
701E
F00E
FFFF
FFFF
FFFF
ENDCHAR
STARTCHAR 03A9
ENCODING 937
SWIDTH 785 0
DWIDTH 22 0
BBX 19 22 1 -1
BITMAP
00F800
03FE00
0FFF00
1F8F80
1E0780
3C03C0
3801C0
3001E0
7000E0
6000E0
6000E0
6000E0
6000E0
7000E0
3000E0
3001C0
3801C0
3C0380
1E0780
1F8F00
FF9FE0
FF1FE0
ENDCHAR
STARTCHAR 03C0
ENCODING 960
SWIDTH 678 0
DWIDTH 19 0
BBX 17 14 1 1
BITMAP
FFFF00
FFFF00
EE1C00
EE1C00
0E1C00
0E1C00
0E1C00
0E1C00
0E1C00
0E1C00
0E1E00
0E1F80
0E0F80
0E0780
ENDCHAR
STARTCHAR 2013
ENCODING 8211
SWIDTH 500 0
DWIDTH 14 0
BBX 12 2 1 6
BITMAP
FFF0
FFF0
ENDCHAR
STARTCHAR 2014
ENCODING 8212
SWIDTH 1000 0
DWIDTH 28 0
BBX 26 3 1 6
BITMAP
FFFFFFC0
FFFFFFC0
7FFF8000
ENDCHAR
STARTCHAR 2018
ENCODING 8216
SWIDTH 250 0
DWIDTH 7 0
BBX 5 8 2 16
BITMAP
30
78
70
60
E0
F0
F8
60
ENDCHAR
STARTCHAR 2019
ENCODING 8217
SWIDTH 250 0
DWIDTH 7 0
BBX 5 8 2 13
BITMAP
30
F8
78
38
30
70
F0
40
ENDCHAR
STARTCHAR 201A
ENCODING 8218
SWIDTH 250 0
DWIDTH 7 0
BBX 0 0 0 0
BITMAP
ENDCHAR
STARTCHAR 201C
ENCODING 8220
SWIDTH 428 0
DWIDTH 12 0
BBX 10 8 2 16
BITMAP
30C0
79C0
7380
6380
E380
F3C0
FBC0
6100
ENDCHAR
STARTCHAR 201D
ENCODING 8221
SWIDTH 428 0
DWIDTH 12 0
BBX 10 8 2 13
BITMAP
31C0
FBC0
7BC0
39C0
31C0
73C0
F380
4300
ENDCHAR
STARTCHAR 201E
ENCODING 8222
SWIDTH 428 0
DWIDTH 12 0
BBX 0 0 0 0
BITMAP
ENDCHAR
STARTCHAR 2020
ENCODING 8224
SWIDTH 464 0
DWIDTH 13 0
BBX 10 23 2 -2
BITMAP
0E00
0E00
0E00
0E00
0E00
FFC0
FFC0
0E00
0E00
0E00
0E00
0E00
0E00
0E00
0E00
0E00
0E00
0E00
0E00
1E00
0E00
0E00
0E00
ENDCHAR
STARTCHAR 2021
ENCODING 8225
SWIDTH 464 0
DWIDTH 13 0
BBX 11 25 1 -2
BITMAP
0E00
0E00
0E00
0E00
0E00
0FE0
FFE0
FFE0
7FC0
0E00
0E00
0E00
0E00
0E00
7FC0
7FE0
7FE0
0E00
0E00
0E00
0E00
0E00
0E00
0E00
0E00
ENDCHAR
STARTCHAR 2022
ENCODING 8226
SWIDTH 607 0
DWIDTH 17 0
BBX 10 8 3 6
BITMAP
1E00
7F80
7F80
FFC0
FFC0
FF80
7F80
3F00
ENDCHAR
STARTCHAR 2026
ENCODING 8230
SWIDTH 1000 0
DWIDTH 28 0
BBX 24 5 2 -2
BITMAP
20180C
783C1E
F87C1F
F87C1E
70380E
ENDCHAR
STARTCHAR 2030
ENCODING 8240
SWIDTH 1357 0
DWIDTH 38 0
BBX 37 22 0 -1
BITMAP
3800600000
3803F00000
79FFE00000
73FFE00000
E381E00000
E381C00000
E381C00000
E3C3C00000
E1C39F07C0
71C7BF0FE0
7BC73F8FF0
3F8F739C70
1F8F71DC30
0E1E71DC38
001E71DC38
003C71DC38
003C71DC38
007C79CE38
00783F8FF0
00F81F87F0
00F00F03E0
0060000000
ENDCHAR
STARTCHAR 2039
ENCODING 8249
SWIDTH 250 0
DWIDTH 7 0
BBX 6 11 0 1
BITMAP
0C
1C
3C
78
70
E0
70
70
38
1C
08
ENDCHAR
STARTCHAR 203A
ENCODING 8250
SWIDTH 250 0
DWIDTH 7 0
BBX 6 11 0 1
BITMAP
C0
E0
F0
78
3C
1C
3C
38
70
E0
40
ENDCHAR
STARTCHAR 2044
ENCODING 8260
SWIDTH 178 0
DWIDTH 5 0
BBX 0 0 0 0
BITMAP
ENDCHAR
STARTCHAR 2122
ENCODING 8482
SWIDTH 821 0
DWIDTH 23 0
BBX 17 10 3 15
BITMAP
200000
200000
200000
F9B700
20D700
20DB00
209B00
309B00
FF9B80
CF9180
ENDCHAR
STARTCHAR 2202
ENCODING 8706
SWIDTH 535 0
DWIDTH 15 0
BBX 12 19 1 0
BITMAP
3F00
7F80
F1C0
00E0
0060
0060
0C70
3FB0
7FF0
7BF0
E0F0
E030
E030
E030
F070
78E0
7FE0
3FC0
0F80
ENDCHAR
STARTCHAR 220F
ENCODING 8719
SWIDTH 750 0
DWIDTH 21 0
BBX 15 25 3 -4
BITMAP
FFFE
FFFE
E00E
E00E
E00E
E00E
E00E
E00E
E00E
E00E
E00E
E00E
E00E
E00E
E00E
E00E
E00E
E00E
E00E
E00E
E00E
E00E
E00E
E00E
E00E
ENDCHAR
STARTCHAR 2211
ENCODING 8721
SWIDTH 678 0
DWIDTH 19 0
BBX 17 27 1 -7
BITMAP
FFFF00
FFFF80
FFFF00
F00000
7C0000
3E0000
1F0000
0F8000
07C000
03E000
01F000
00F800
007C00
007800
00F800
01F000
01E000
03C000
07C000
0F8000
1F0000
1F0000
3E0000
7FFF80
7FFF80
3FFF80
001F00
ENDCHAR
STARTCHAR 2212
ENCODING 8722
SWIDTH 857 0
DWIDTH 24 0
BBX 18 3 3 8
BITMAP
FFFFC0
FFFFC0
7FFF80
ENDCHAR
STARTCHAR 221A
ENCODING 8730
SWIDTH 678 0
DWIDTH 19 0
BBX 21 24 1 0
BITMAP
0003F8
0003F8
0003F8
000700
000700
000700
000700
000E00
000E00
000E00
FC0E00
FC0C00
FE1C00
0E1C00
071C00
071800
071800
03B800
03B800
01F800
01F000
01F000
00F000
00F000
ENDCHAR
STARTCHAR 221E
ENCODING 8734
SWIDTH 821 0
DWIDTH 23 0
BBX 19 11 2 3
BITMAP
3E1F80
7F3FC0
7FFDC0
E3F060
C1E060
C0F060
C0F860
E1FFC0
7FFFC0
7F9F80
3E0700
ENDCHAR
STARTCHAR 222B
ENCODING 8747
SWIDTH 535 0
DWIDTH 15 0
BBX 14 29 2 -8
BITMAP
0040
01F8
03FC
03DC
038C
078C
0780
0780
0780
0780
0380
0380
0380
0380
0380
0380
0380
0380
0380
0380
0380
0380
E380
E380
E380
E380
FF80
7F00
3F00
ENDCHAR
STARTCHAR 2248
ENCODING 8776
SWIDTH 821 0
DWIDTH 23 0
BBX 20 9 2 4
BITMAP
1F0020
7FF0F0
FFFFE0
E03FC0
000000
1FC030
7FFFF0
7FFFF0
601FC0
ENDCHAR
STARTCHAR 2260
ENCODING 8800
SWIDTH 821 0
DWIDTH 23 0
BBX 18 16 3 2
BITMAP
000C00
001C00
003C00
003800
FFFF80
FFFF80
00E000
01C000
01C000
03C000
7FFFC0
7FFFC0
0E0000
1E0000
1C0000
080000
ENDCHAR
STARTCHAR 2264
ENCODING 8804
SWIDTH 821 0
DWIDTH 23 0
BBX 19 21 2 1
BITMAP
000080
0007C0
001FC0
007F80
01FE00
0FF000
3FC000
7F0000
7C0000
FF0000
7FC000
1FF000
03FC00
00FF00
003F80
000F80
000000
000000
7FFFE0
FFFFE0
7FFF80
ENDCHAR
STARTCHAR 2265
ENCODING 8805
SWIDTH 821 0
DWIDTH 23 0
BBX 18 20 3 1
BITMAP
700000
FC0000
FF0000
3FE000
07F800
00FE00
003F00
000F80
003F80
00FE00
03F800
0FE000
3F8000
7E0000
780000
000000
000000
000000
FFFFC0
FFFFC0
ENDCHAR
STARTCHAR 25CA
ENCODING 9674
SWIDTH 500 0
DWIDTH 14 0
BBX 0 0 0 0
BITMAP
ENDCHAR
STARTCHAR F8FF
ENCODING 63743
SWIDTH 1250 0
DWIDTH 35 0
BBX 32 3 1 6
BITMAP
F5E8B165
F5F0BEE8
3068F548
ENDCHAR
STARTCHAR FB01
ENCODING 64257
SWIDTH 678 0
DWIDTH 19 0
BBX 0 0 0 0
BITMAP
ENDCHAR
STARTCHAR FB02
ENCODING 64258
SWIDTH 678 0
DWIDTH 19 0
BBX 0 0 0 0
BITMAP
ENDCHAR
ENDFONT
